<region> lovel=1 hivel=4 amp_velcurve_4=1 sample=../samples/toms/tm10rock/stx/snare_on/rms/tm10wrock_stxl_rms_001.wav
<region> lovel=5 hivel=8 amp_velcurve_8=1 sample=../samples/toms/tm10rock/stx/snare_on/rms/tm10wrock_stxl_rms_002.wav
<region> lovel=9 hivel=12 amp_velcurve_12=1 sample=../samples/toms/tm10rock/stx/snare_on/rms/tm10wrock_stxl_rms_003.wav
<region> lovel=13 hivel=16 amp_velcurve_16=1 sample=../samples/toms/tm10rock/stx/snare_on/rms/tm10wrock_stxl_rms_004.wav
<region> lovel=17 hivel=20 amp_velcurve_20=1 sample=../samples/toms/tm10rock/stx/snare_on/rms/tm10wrock_stxl_rms_005.wav
<region> lovel=21 hivel=24 amp_velcurve_24=1 sample=../samples/toms/tm10rock/stx/snare_on/rms/tm10wrock_stxl_rms_006.wav
<region> lovel=25 hivel=28 amp_velcurve_28=1 sample=../samples/toms/tm10rock/stx/snare_on/rms/tm10wrock_stxl_rms_007.wav
<region> lovel=29 hivel=32 amp_velcurve_32=1 sample=../samples/toms/tm10rock/stx/snare_on/rms/tm10wrock_stxl_rms_008.wav
<region> lovel=33 hivel=36 amp_velcurve_36=1 sample=../samples/toms/tm10rock/stx/snare_on/rms/tm10wrock_stxl_rms_009.wav
<region> lovel=37 hivel=40 amp_velcurve_40=1 sample=../samples/toms/tm10rock/stx/snare_on/rms/tm10wrock_stxl_rms_010.wav
<region> lovel=41 hivel=44 amp_velcurve_44=1 sample=../samples/toms/tm10rock/stx/snare_on/rms/tm10wrock_stxl_rms_011.wav
<region> lovel=45 hivel=48 amp_velcurve_48=1 sample=../samples/toms/tm10rock/stx/snare_on/rms/tm10wrock_stxl_rms_012.wav
<region> lovel=49 hivel=52 amp_velcurve_52=1 sample=../samples/toms/tm10rock/stx/snare_on/rms/tm10wrock_stxl_rms_013.wav
<region> lovel=53 hivel=56 amp_velcurve_56=1 sample=../samples/toms/tm10rock/stx/snare_on/rms/tm10wrock_stxl_rms_014.wav
<region> lovel=57 hivel=60 amp_velcurve_60=1 sample=../samples/toms/tm10rock/stx/snare_on/rms/tm10wrock_stxl_rms_015.wav
<region> lovel=61 hivel=64 amp_velcurve_64=1 sample=../samples/toms/tm10rock/stx/snare_on/rms/tm10wrock_stxl_rms_016.wav
<region> lovel=65 hivel=68 amp_velcurve_68=1 sample=../samples/toms/tm10rock/stx/snare_on/rms/tm10wrock_stxl_rms_017.wav
<region> lovel=69 hivel=72 amp_velcurve_72=1 sample=../samples/toms/tm10rock/stx/snare_on/rms/tm10wrock_stxl_rms_018.wav
<region> lovel=73 hivel=77 amp_velcurve_77=1 sample=../samples/toms/tm10rock/stx/snare_on/rms/tm10wrock_stxl_rms_019.wav
<region> lovel=78 hivel=82 amp_velcurve_82=1 sample=../samples/toms/tm10rock/stx/snare_on/rms/tm10wrock_stxl_rms_020.wav
<region> lovel=83 hivel=87 amp_velcurve_87=1 sample=../samples/toms/tm10rock/stx/snare_on/rms/tm10wrock_stxl_rms_021.wav
<region> lovel=88 hivel=92 amp_velcurve_92=1 sample=../samples/toms/tm10rock/stx/snare_on/rms/tm10wrock_stxl_rms_022.wav
<region> lovel=93 hivel=97 amp_velcurve_97=1 sample=../samples/toms/tm10rock/stx/snare_on/rms/tm10wrock_stxl_rms_023.wav
<region> lovel=98 hivel=102 amp_velcurve_102=1 sample=../samples/toms/tm10rock/stx/snare_on/rms/tm10wrock_stxl_rms_024.wav
<region> lovel=103 hivel=107 amp_velcurve_107=1 sample=../samples/toms/tm10rock/stx/snare_on/rms/tm10wrock_stxl_rms_025.wav
<region> lovel=108 hivel=112 amp_velcurve_112=1 sample=../samples/toms/tm10rock/stx/snare_on/rms/tm10wrock_stxl_rms_026.wav
<region> lovel=113 hivel=117 amp_velcurve_117=1 sample=../samples/toms/tm10rock/stx/snare_on/rms/tm10wrock_stxl_rms_027.wav
<region> lovel=118 hivel=122 amp_velcurve_122=1 sample=../samples/toms/tm10rock/stx/snare_on/rms/tm10wrock_stxl_rms_028.wav
<region> lovel=123 hivel=127 amp_velcurve_127=1 sample=../samples/toms/tm10rock/stx/snare_on/rms/tm10wrock_stxl_rms_029.wav
